<?xml version="1.0" encoding="utf-8"?>
<!-- Generator: Adobe Illustrator 19.0.0, SVG Export Plug-In . SVG Version: 6.00 Build 0)  -->
<svg version="1.1" id="Capa_1" xmlns="http://www.w3.org/2000/svg" xmlns:xlink="http://www.w3.org/1999/xlink" x="0px" y="0px"
	 viewBox="-293 472.4 49.7 49.7" style="enable-background:new -293 472.4 49.7 49.7;" xml:space="preserve">
<style type="text/css">
	.st0{fill:#FFFFFF;}
</style>
<g>
	<g>
		<path class="st0" d="M-272.1,493.2c0-1.9-1.3-1.9-1.3-1.9h-0.7h-4.6l0,0v4.1h5C-272.9,495.4-272.1,495.1-272.1,493.2z"/>
		<path class="st0" d="M-259.8,495.4c-2.8,0-3.2,2.8-3.2,2.8h6C-257,498.2-257,495.4-259.8,495.4z"/>
		<path class="st0" d="M-273.4,498.2h-5.3v4.9h4.7c0.1,0,0.2,0,0.3,0c0.8,0,2.2-0.2,2.2-2.4C-271.5,498.2-273.4,498.2-273.4,498.2z"
			/>
		<path class="st0" d="M-268.2,472.5c-13.7,0-24.8,11.1-24.8,24.8c0,13.7,11.1,24.8,24.8,24.8c13.7,0,24.8-11.1,24.8-24.8
			C-243.3,483.7-254.5,472.5-268.2,472.5z M-263.8,489.2h7.5v2.3h-7.5V489.2z M-267.6,501c0,5.6-5.8,5.4-5.8,5.4h-5.3h-0.2h-4v-18.3
			h4h0.2h5.3c2.9,0,5.2,1.6,5.2,4.9s-2.8,3.5-2.8,3.5C-267.3,496.4-267.6,501-267.6,501z M-253.5,500.7h-9.5c0,3.4,3.2,3.2,3.2,3.2
			c3,0,2.9-2,2.9-2h3.2c0,5.2-6.3,4.9-6.3,4.9c-7.5,0-7-7-7-7s0-7,7-7C-252.5,492.7-253.5,500.7-253.5,500.7z"/>
	</g>
</g>
</svg>
