<?xml version="1.0" encoding="utf-8"?>
<!-- Generator: Adobe Illustrator 19.0.0, SVG Export Plug-In . SVG Version: 6.00 Build 0)  -->
<svg version="1.1" id="Layer_1" xmlns="http://www.w3.org/2000/svg" xmlns:xlink="http://www.w3.org/1999/xlink" x="0px" y="0px"
	 viewBox="0 0 100 100" style="enable-background:new 0 0 100 100;" xml:space="preserve">
<style type="text/css">
	.st0{fill:#FFFFFF;}
</style>
<g id="XMLID_1_">
	<path id="XMLID_24_" class="st0" d="M50,99.8C22.6,99.8,0.3,77.4,0.3,50C0.3,22.6,22.6,0.3,50,0.3c27.4,0,49.8,22.3,49.8,49.8
		C99.8,77.4,77.4,99.8,50,99.8z"/>
	<path id="XMLID_21_" d="M50,0.5c27.3,0,49.5,22.2,49.5,49.5S77.3,99.5,50,99.5S0.5,77.3,0.5,50S22.7,0.5,50,0.5 M50,0
		C22.4,0,0,22.4,0,50s22.4,50,50,50s50-22.4,50-50S77.6,0,50,0L50,0z"/>
</g>
<g id="XMLID_2_">
	<path id="XMLID_3_" d="M16.6,50.2c0,6,1.4,10.7,4.1,14c2.8,3.4,6.6,5.1,11.4,5.1c4.9,0,9.6-1.8,14.3-5.4V68
		c-4.5,3.2-9.5,4.8-15.1,4.8c-5.6,0-10.2-2-13.6-6c-3.5-4-5.2-9.7-5.2-17.1c0-6.4,1.8-11.7,5.4-16.1c3.6-4.4,8.3-6.5,14.1-6.5
		c5.4,0,9.6,1.9,12.5,5.7c2.9,3.8,4.3,9,4.3,15.6v1.7H16.6z M44.7,46.6c-0.2-5-1.4-8.9-3.6-11.7c-2.2-2.8-5.3-4.2-9.3-4.2
		c-4.1,0-7.5,1.4-10.1,4.1c-2.7,2.7-4.3,6.7-5,11.8H44.7z"/>
	<path id="XMLID_6_" d="M70.2,71.8h-3.6L49.8,28.2h4.4l13,34.7c0.6,1.7,1.1,3.2,1.3,4.6h0.2c0.4-1.8,0.8-3.2,1.2-4.4l13.4-34.8h4.3
		L70.2,71.8z"/>
</g>
</svg>
